<?xml version="1.0" standalone="no"?>
<!DOCTYPE svg PUBLIC "-//W3C//DTD SVG 20010904//EN"
 "http://www.w3.org/TR/2001/REC-SVG-20010904/DTD/svg10.dtd">
<svg version="1.0" xmlns="http://www.w3.org/2000/svg"
 width="1024.000000pt" height="384.000000pt" viewBox="0 0 1024.000000 384.000000"
 preserveAspectRatio="xMidYMid meet">

<g transform="translate(0.000000,384.000000) scale(0.100000,-0.100000)"
fill="#000000" stroke="none">
<path d="M235 3791 c-74 -33 -96 -133 -41 -190 17 -17 34 -31 40 -31 5 0 7 2
4 5 -2 3 0 33 7 67 7 43 16 63 25 63 11 0 14 -10 12 -37 -4 -41 7 -48 32 -22
19 18 21 55 4 72 -17 17 -63 15 -78 -3 -7 -9 -10 -27 -6 -45 6 -34 -8 -40 -24
-9 -16 29 4 74 39 89 53 21 111 -13 111 -66 0 -35 -39 -77 -67 -71 -19 3 -27
-1 -34 -20 -13 -36 -13 -36 33 -30 28 4 51 15 72 36 26 27 31 39 31 81 0 42
-5 54 -31 81 -33 33 -92 46 -129 30z"/>
<path d="M330 3250 c0 -33 4 -60 10 -60 6 0 10 27 10 60 0 33 -4 60 -10 60 -6
0 -10 -27 -10 -60z"/>
<path d="M470 3300 c0 -5 5 -10 10 -10 6 0 10 5 10 10 0 6 -4 10 -10 10 -5 0
-10 -4 -10 -10z"/>
<path d="M610 3300 c0 -5 5 -10 10 -10 6 0 10 5 10 10 0 6 -4 10 -10 10 -5 0
-10 -4 -10 -10z"/>
<path d="M370 3234 c0 -51 17 -60 22 -11 2 20 8 32 18 32 10 0 16 -12 18 -32
5 -49 24 -40 20 10 -3 41 -4 42 -40 43 l-38 1 0 -43z"/>
<path d="M470 3235 c0 -25 5 -45 10 -45 6 0 10 20 10 45 0 25 -4 45 -10 45 -5
0 -10 -20 -10 -45z"/>
<path d="M522 3268 c-7 -7 -12 -21 -12 -33 0 -41 45 -60 71 -29 11 13 9 15
-17 12 -23 -2 -29 1 -29 17 0 16 6 19 29 17 26 -3 28 -1 17 12 -16 19 -42 21
-59 4z"/>
<path d="M610 3235 c0 -25 5 -45 10 -45 6 0 10 20 10 45 0 25 -4 45 -10 45 -5
0 -10 -20 -10 -45z"/>
<path d="M656 3264 c-9 -8 -16 -22 -16 -29 0 -20 28 -45 51 -45 27 0 45 41 30
69 -14 25 -43 27 -65 5z m47 -16 c6 -19 -3 -38 -19 -38 -8 0 -14 10 -14 25 0
26 25 35 33 13z"/>
<path d="M1821 2884 c-10 -22 -9 -25 5 -22 9 2 23 13 32 26 13 20 13 22 -5 22
-12 0 -25 -11 -32 -26z"/>
<path d="M1072 2728 c-22 -62 -43 -121 -47 -130 -6 -15 -2 -18 23 -18 23 0 31
5 36 25 6 23 11 25 56 25 45 0 52 -3 60 -25 7 -18 17 -25 35 -25 30 0 32 -11
-25 150 -35 99 -39 105 -67 108 -30 3 -30 2 -71 -110z m97 -40 c1 -14 -7 -18
-30 -18 -28 0 -31 2 -25 25 3 13 11 37 17 52 l11 28 13 -35 c8 -19 14 -43 14
-52z"/>
<path d="M1270 2820 c0 -17 7 -20 40 -20 l40 0 0 -110 0 -110 30 0 30 0 0 110
0 110 35 0 c28 0 35 4 35 20 0 19 -7 20 -105 20 -98 0 -105 -1 -105 -20z"/>
<path d="M1520 2710 l0 -130 90 0 c83 0 90 1 90 20 0 18 -7 20 -65 20 l-65 0
0 110 0 110 -25 0 -25 0 0 -130z"/>
<path d="M1740 2710 l0 -130 95 0 c88 0 95 1 95 20 0 18 -7 20 -70 20 l-70 0
0 35 0 35 65 0 c58 0 65 2 65 20 0 18 -7 20 -65 20 l-65 0 0 35 0 35 70 0 c63
0 70 2 70 20 0 19 -7 20 -95 20 l-95 0 0 -130z"/>
<path d="M1950 2820 c0 -17 7 -20 40 -20 l40 0 0 -110 0 -110 30 0 30 0 0 110
0 110 35 0 c28 0 35 4 35 20 0 19 -7 20 -105 20 -98 0 -105 -1 -105 -20z"/>
<path d="M2190 2710 l0 -130 25 0 25 0 0 130 0 130 -25 0 -25 0 0 -130z"/>
<path d="M2360 2833 c-80 -29 -101 -161 -36 -222 59 -55 186 -22 186 48 0 19
-45 12 -58 -9 -16 -26 -73 -27 -95 -2 -21 24 -22 90 -1 120 20 29 78 31 96 2
13 -21 58 -28 58 -9 0 52 -88 95 -150 72z"/>
<path d="M2599 2817 c-22 -15 -39 -38 -49 -65 -13 -37 -13 -47 0 -84 48 -137
240 -103 240 42 0 105 -106 164 -191 107z m121 -47 c13 -13 20 -33 20 -60 0
-50 -27 -80 -72 -80 -45 0 -68 25 -68 74 0 57 22 86 66 86 21 0 42 -8 54 -20z"/>
<path d="M2930 2710 l0 -130 30 0 29 0 3 83 3 82 48 -82 c40 -68 53 -83 73
-83 l24 0 0 130 0 130 -25 0 c-25 0 -25 -1 -25 -87 l0 -88 -51 88 c-45 78 -54
87 -80 87 l-29 0 0 -130z"/>
<path d="M3265 2828 c-3 -7 -23 -64 -45 -126 -22 -63 -40 -116 -40 -118 0 -2
11 -4 25 -4 18 0 28 7 35 25 8 22 15 25 60 25 45 0 50 -2 56 -25 5 -19 13 -25
34 -25 l29 0 -39 113 c-21 61 -41 120 -45 130 -8 20 -63 24 -70 5z m45 -83
c25 -67 24 -75 -9 -75 -17 0 -31 5 -31 11 0 16 22 89 27 89 2 0 8 -11 13 -25z"/>
<path d="M3520 2833 c-80 -29 -101 -161 -36 -222 59 -55 186 -22 186 48 0 19
-45 12 -58 -9 -16 -26 -73 -27 -95 -2 -21 24 -22 90 -1 120 20 29 78 31 96 2
13 -21 58 -28 58 -9 0 52 -88 95 -150 72z"/>
<path d="M3710 2710 l0 -130 25 0 25 0 0 130 0 130 -25 0 -25 0 0 -130z"/>
<path d="M3859 2817 c-22 -15 -39 -38 -49 -65 -13 -37 -13 -47 0 -84 48 -137
240 -103 240 42 0 105 -106 164 -191 107z m121 -47 c13 -13 20 -33 20 -60 0
-50 -27 -80 -72 -80 -45 0 -68 25 -68 74 0 57 22 86 66 86 21 0 42 -8 54 -20z"/>
<path d="M4090 2710 l0 -130 30 0 29 0 3 83 3 82 48 -82 c40 -68 53 -83 73
-83 l24 0 0 130 0 130 -25 0 c-25 0 -25 -1 -25 -87 l0 -88 -51 88 c-45 78 -54
87 -80 87 l-29 0 0 -130z"/>
<path d="M4425 2828 c-3 -7 -23 -64 -45 -126 -22 -63 -40 -116 -40 -118 0 -2
11 -4 25 -4 18 0 28 7 35 25 8 22 15 25 60 25 45 0 50 -2 56 -25 5 -19 13 -25
34 -25 l29 0 -39 113 c-21 61 -41 120 -45 130 -8 20 -63 24 -70 5z m45 -83
c25 -67 24 -75 -9 -75 -17 0 -31 5 -31 11 0 16 22 89 27 89 2 0 8 -11 13 -25z"/>
<path d="M4620 2710 l0 -130 90 0 c83 0 90 1 90 20 0 18 -7 20 -65 20 l-65 0
0 110 0 110 -25 0 -25 0 0 -130z"/>
<path d="M330 2770 l0 -60 45 0 c25 0 45 5 45 10 0 6 -13 10 -30 10 -20 0 -30
5 -30 15 0 9 9 15 25 15 14 0 25 5 25 10 0 6 -11 10 -25 10 -16 0 -25 6 -25
15 0 10 10 15 30 15 17 0 30 5 30 10 0 6 -20 10 -45 10 l-45 0 0 -60z"/>
<path d="M620 2770 c0 -47 3 -60 15 -60 12 0 15 13 15 60 0 47 -3 60 -15 60
-12 0 -15 -13 -15 -60z"/>
<path d="M442 2778 c14 -20 14 -25 1 -45 -14 -20 -14 -23 0 -23 8 0 18 6 21
13 5 10 7 10 12 0 3 -7 12 -13 20 -13 12 0 12 3 -1 23 -13 21 -13 25 1 45 13
19 13 22 0 22 -8 0 -17 -6 -20 -12 -5 -10 -7 -10 -12 0 -3 6 -13 12 -21 12
-14 0 -14 -2 -1 -22z"/>
<path d="M520 2739 c0 -46 3 -59 15 -59 8 0 15 9 15 19 0 14 5 18 20 14 15 -4
22 2 30 22 15 39 -2 63 -45 63 l-35 0 0 -59z m60 16 c0 -16 -6 -25 -15 -25 -9
0 -15 9 -15 25 0 16 6 25 15 25 9 0 15 -9 15 -25z"/>
<path d="M676 2784 c-9 -8 -16 -22 -16 -29 0 -20 28 -45 51 -45 27 0 45 41 30
69 -14 25 -43 27 -65 5z m47 -16 c6 -19 -3 -38 -19 -38 -8 0 -14 10 -14 25 0
26 25 35 33 13z"/>
<path d="M770 2754 c0 -24 5 -44 10 -44 6 0 10 13 10 29 0 17 5 33 10 36 16
10 11 21 -10 22 -17 2 -20 -4 -20 -43z"/>
<path d="M837 2793 c-14 -13 -6 -24 13 -18 29 9 24 -4 -6 -15 -40 -15 -28 -45
19 -46 35 -1 37 0 37 30 0 18 -5 37 -12 44 -13 13 -41 16 -51 5z m33 -53 c0
-5 -4 -10 -10 -10 -5 0 -10 5 -10 10 0 6 5 10 10 10 6 0 10 -4 10 -10z"/>
<path d="M920 2754 c0 -24 5 -44 10 -44 6 0 10 13 10 29 0 17 5 33 10 36 16
10 11 21 -10 22 -17 2 -20 -4 -20 -43z"/>
<path d="M346 2334 c-34 -33 -10 -104 34 -104 24 0 58 32 40 38 -7 3 -16 -2
-21 -9 -12 -20 -44 2 -44 31 0 29 32 51 44 31 5 -7 14 -12 21 -9 9 3 8 9 -4
21 -22 21 -50 22 -70 1z"/>
<path d="M2804 2329 c-10 -17 13 -36 27 -22 12 12 4 33 -11 33 -5 0 -12 -5
-16 -11z"/>
<path d="M2864 2329 c-10 -17 13 -36 27 -22 12 12 4 33 -11 33 -5 0 -12 -5
-16 -11z"/>
<path d="M2924 2329 c-10 -17 13 -36 27 -22 12 12 4 33 -11 33 -5 0 -12 -5
-16 -11z"/>
<path d="M450 2274 c0 -24 5 -44 10 -44 6 0 10 13 10 29 0 17 5 33 10 36 16
10 11 21 -10 22 -17 2 -20 -4 -20 -43z"/>
<path d="M508 2294 c-21 -46 31 -87 62 -49 12 14 11 16 -12 10 -15 -4 -29 -2
-32 4 -5 7 4 11 23 11 32 0 41 16 19 38 -20 20 -48 14 -60 -14z m42 -4 c0 -5
-4 -10 -10 -10 -5 0 -10 5 -10 10 0 6 5 10 10 10 6 0 10 -4 10 -10z"/>
<path d="M600 2305 c-12 -14 -11 -16 13 -10 34 9 35 -2 1 -15 -38 -15 -28 -44
17 -47 l35 -2 -5 42 c-5 33 -11 43 -27 45 -11 2 -27 -4 -34 -13z m40 -45 c0
-5 -7 -10 -16 -10 -8 0 -12 5 -9 10 3 6 10 10 16 10 5 0 9 -4 9 -10z"/>
<path d="M690 2274 c0 -24 5 -44 10 -44 6 0 10 13 10 29 0 17 5 33 10 36 16
10 11 21 -10 22 -17 2 -20 -4 -20 -43z"/>
<path d="M320 1880 l0 -59 36 24 c20 14 43 25 50 25 7 0 21 3 31 7 15 5 14 3
-4 -13 -33 -29 -36 -57 -12 -88 16 -20 29 -26 49 -24 17 1 37 -5 49 -16 16
-15 24 -17 33 -8 9 9 7 17 -8 33 -11 12 -17 32 -16 49 2 20 -4 33 -24 49 l-27
21 162 0 161 0 0 30 0 30 -240 0 -240 0 0 -60z m171 -30 c23 -13 25 -52 4 -70
-8 -7 -25 -10 -39 -6 -33 8 -43 42 -20 67 20 22 28 23 55 9z"/>
<path d="M294 1390 c-29 -11 -34 -22 -44 -83 -5 -29 -11 -62 -15 -74 -7 -23
-6 -23 85 -23 91 0 92 0 85 23 -4 12 -11 46 -15 76 -12 72 -46 101 -96 81z"/>
<path d="M2260 1320 c0 -52 -15 -65 -40 -35 -15 18 -41 20 -57 4 -14 -14 -6
-39 14 -39 8 0 11 -4 8 -10 -3 -5 -17 -10 -31 -10 -13 0 -24 -4 -24 -10 0 -18
60 -10 81 11 15 15 35 21 77 22 45 2 57 6 60 20 2 10 -3 17 -12 17 -9 0 -16
-4 -16 -10 0 -5 -7 -10 -15 -10 -11 0 -15 12 -15 50 0 38 -4 50 -15 50 -11 0
-15 -12 -15 -50z"/>
<path d="M2680 1310 c0 -33 4 -60 10 -60 6 0 10 27 10 60 0 33 -4 60 -10 60
-6 0 -10 -27 -10 -60z"/>
<path d="M2912 1313 l3 -58 60 0 c53 0 60 2 60 20 0 25 -42 34 -51 11 -3 -9
-15 -16 -25 -16 -16 0 -19 8 -19 50 0 38 -4 50 -15 50 -13 0 -15 -11 -13 -57z"/>
<path d="M3350 1295 c0 -41 4 -75 9 -75 4 0 9 34 10 75 1 47 -2 75 -8 75 -7 0
-11 -29 -11 -75z"/>
<path d="M3187 1324 c-4 -4 -7 -18 -7 -31 0 -16 -6 -23 -20 -23 -11 0 -20 5
-20 10 0 6 -7 10 -15 10 -8 0 -15 -8 -15 -18 0 -23 -19 -42 -42 -42 -10 0 -18
-5 -18 -11 0 -16 62 -3 76 16 9 12 35 16 100 18 76 2 89 5 92 20 2 10 -3 17
-12 17 -9 0 -16 -4 -16 -10 0 -5 -9 -10 -19 -10 -14 0 -21 8 -23 28 -2 20 -9
28 -28 30 -14 2 -29 0 -33 -4z m38 -24 c3 -5 -1 -10 -10 -10 -9 0 -13 5 -10
10 3 6 8 10 10 10 2 0 7 -4 10 -10z"/>
<path d="M2406 1296 c5 -20 2 -26 -10 -26 -9 0 -16 -4 -16 -10 0 -16 36 -12
51 6 14 17 4 44 -20 52 -8 3 -10 -4 -5 -22z"/>
<path d="M2560 1300 c0 -5 12 -10 28 -10 21 0 24 -2 12 -10 -23 -15 -67 -12
-74 6 -8 22 -60 15 -64 -9 -3 -12 4 -20 17 -24 27 -7 17 -23 -15 -23 -13 0
-24 -4 -24 -10 0 -18 59 -11 80 10 11 11 31 20 45 20 29 0 85 26 85 39 0 10
-35 21 -67 21 -13 0 -23 -4 -23 -10z"/>
<path d="M2860 1291 c0 -33 -11 -51 -32 -51 -11 0 -22 8 -25 20 -6 23 -33 27
-33 6 0 -24 29 -46 60 -46 35 0 65 38 55 70 -8 25 -25 26 -25 1z"/>
<path d="M303 1173 c16 -16 18 -16 34 0 16 16 15 17 -17 17 -32 0 -33 -1 -17
-17z"/>
<path d="M2270 1090 c0 -5 14 -10 30 -10 29 0 30 -1 16 -22 -7 -13 -17 -36
-20 -51 -10 -43 13 -29 31 18 29 79 29 75 -16 75 -22 0 -41 -4 -41 -10z"/>
<path d="M2780 1090 c0 -5 7 -10 15 -10 8 0 15 5 15 10 0 6 -7 10 -15 10 -8 0
-15 -4 -15 -10z"/>
<path d="M2880 1081 c0 -14 -5 -18 -19 -14 -27 7 -47 -31 -33 -63 8 -17 19
-22 41 -22 31 1 31 1 31 60 0 32 -4 58 -10 58 -5 0 -10 -9 -10 -19z m0 -56 c0
-15 -6 -25 -14 -25 -16 0 -25 19 -18 38 8 22 32 13 32 -13z"/>
<path d="M2417 1063 c-14 -14 -6 -34 18 -43 33 -13 32 -24 -1 -16 -19 5 -25 3
-22 -6 3 -7 18 -13 34 -13 40 0 44 29 7 50 l-28 16 28 -6 c29 -6 38 9 11 19
-20 8 -39 8 -47 -1z"/>
<path d="M2498 1044 c-21 -46 31 -87 62 -49 12 14 11 16 -12 10 -15 -4 -29 -2
-32 4 -5 7 4 11 23 11 32 0 41 16 19 38 -20 20 -48 14 -60 -14z m42 -4 c0 -5
-4 -10 -10 -10 -5 0 -10 5 -10 10 0 6 5 10 10 10 6 0 10 -4 10 -10z"/>
<path d="M2603 1061 c-16 -10 -21 -35 -12 -60 7 -17 15 -22 30 -18 13 3 19 1
16 -6 -2 -7 -15 -10 -28 -9 -19 3 -21 1 -12 -8 7 -8 22 -10 37 -6 24 6 26 11
26 60 0 50 -2 54 -24 54 -13 0 -28 -3 -33 -7z m35 -39 c2 -15 -2 -22 -12 -22
-11 0 -16 9 -16 26 0 31 23 28 28 -4z"/>
<path d="M2680 1044 c0 -42 17 -63 50 -62 29 1 30 3 30 45 0 50 -17 59 -22 11
-4 -46 -28 -49 -28 -4 0 25 -4 36 -15 36 -9 0 -15 -10 -15 -26z"/>
<path d="M2780 1025 c0 -33 4 -45 15 -45 11 0 15 12 15 45 0 33 -4 45 -15 45
-11 0 -15 -12 -15 -45z"/>
<path d="M2932 1058 c-17 -17 -15 -53 3 -68 8 -7 25 -10 40 -6 24 6 30 21 25
56 -4 29 -46 40 -68 18z m48 -33 c0 -25 -23 -35 -35 -15 -10 16 2 40 20 40 9
0 15 -9 15 -25z"/>
<path d="M3020 1024 c0 -24 5 -44 10 -44 6 0 10 11 10 24 0 14 7 31 15 40 20
19 19 21 -10 22 -23 2 -25 -1 -25 -42z"/>
<path d="M3092 1058 c-16 -16 -15 -53 3 -68 17 -14 47 -10 53 8 3 9 -3 11 -22
6 -16 -4 -26 -2 -26 5 0 6 14 11 30 11 33 0 35 3 20 31 -12 21 -40 25 -58 7z
m38 -18 c0 -5 -4 -10 -10 -10 -5 0 -10 5 -10 10 0 6 5 10 10 10 6 0 10 -4 10
-10z"/>
<path d="M3183 1064 c-22 -9 -14 -34 12 -44 33 -13 32 -24 -1 -16 -19 5 -25 3
-22 -6 3 -7 18 -13 34 -13 41 0 46 36 7 53 l-28 12 28 -6 c21 -3 28 -1 25 8
-5 14 -35 20 -55 12z"/>
<path d="M294 913 c-12 -2 -34 -17 -49 -33 -21 -22 -28 -39 -28 -70 0 -23 5
-46 11 -52 6 -6 8 -24 5 -41 -5 -26 -4 -28 13 -19 11 6 41 10 67 10 41 -1 53
3 79 29 74 74 6 195 -98 176z m-18 -94 c10 -17 -13 -36 -27 -22 -12 12 -4 33
11 33 5 0 12 -5 16 -11z m60 0 c10 -17 -13 -36 -27 -22 -12 12 -4 33 11 33 5
0 12 -5 16 -11z m60 0 c10 -17 -13 -36 -27 -22 -12 12 -4 33 11 33 5 0 12 -5
16 -11z"/>
<path d="M2406 574 c-34 -33 -10 -104 34 -104 24 0 58 32 40 38 -7 3 -16 -2
-21 -9 -12 -20 -44 2 -44 31 0 29 32 51 44 31 5 -7 14 -12 21 -9 9 3 8 9 -4
21 -22 21 -50 22 -70 1z"/>
<path d="M3050 580 c0 -5 5 -10 10 -10 6 0 10 5 10 10 0 6 -4 10 -10 10 -5 0
-10 -4 -10 -10z"/>
<path d="M2998 569 c-2 -5 -18 -11 -36 -11 -31 -1 -32 -2 -32 -45 0 -23 5 -43
10 -43 6 0 10 13 10 30 0 18 7 33 19 39 24 13 31 5 31 -36 0 -20 5 -33 13 -33
11 0 15 49 8 103 -1 11 -19 8 -23 -4z"/>
<path d="M2512 548 c-17 -17 -15 -53 3 -68 8 -7 25 -10 40 -6 24 6 30 21 25
56 -4 29 -46 40 -68 18z m48 -33 c0 -25 -23 -35 -35 -15 -10 16 2 40 20 40 9
0 15 -9 15 -25z"/>
<path d="M2600 515 c0 -25 5 -45 10 -45 6 0 10 9 10 19 0 26 10 51 21 51 5 0
9 -16 9 -35 0 -19 5 -35 10 -35 6 0 10 9 10 19 0 26 10 51 21 51 5 0 9 -16 9
-35 0 -19 5 -35 11 -35 6 0 9 17 7 42 l-3 43 -57 3 -58 2 0 -45z"/>
<path d="M2740 499 c0 -46 3 -59 15 -59 8 0 15 9 15 19 0 14 5 18 20 14 14 -4
23 2 31 20 17 38 -2 65 -46 65 l-35 0 0 -59z m60 16 c0 -16 -6 -25 -15 -25 -9
0 -15 9 -15 25 0 16 6 25 15 25 9 0 15 -9 15 -25z"/>
<path d="M2847 554 c-15 -15 -6 -24 18 -18 33 8 32 -4 -1 -16 -38 -15 -28 -44
17 -47 l35 -2 -5 42 c-5 36 -10 42 -31 45 -14 2 -29 0 -33 -4z m38 -54 c-3 -5
-10 -10 -16 -10 -5 0 -9 5 -9 10 0 6 7 10 16 10 8 0 12 -4 9 -10z"/>
<path d="M3050 515 c0 -25 5 -45 10 -45 6 0 10 20 10 45 0 25 -4 45 -10 45 -5
0 -10 -20 -10 -45z"/>
<path d="M3090 514 c0 -24 5 -44 10 -44 6 0 10 14 10 30 0 18 6 33 15 36 23 9
18 22 -10 22 -23 0 -25 -4 -25 -44z"/>
<path d="M160 320 l0 -120 120 0 120 0 0 120 0 120 -120 0 -120 0 0 -120z
m101 20 c14 -38 22 -38 36 1 16 42 33 28 33 -27 0 -47 -19 -63 -21 -16 l-1 27
-10 -27 c-12 -35 -24 -35 -36 0 l-10 27 -1 -27 c-2 -50 -21 -29 -21 22 0 56
15 66 31 20z"/>
</g>
</svg>
